<?xml version="1.0" encoding="UTF-8" standalone="no"?><!DOCTYPE svg PUBLIC "-//W3C//DTD SVG 1.1//EN" "http://www.w3.org/Graphics/SVG/1.1/DTD/svg11.dtd"><!-- Generated by graphviz version 2.35.0 (20140103.1005) --><!-- Title: FlowChart Pages: 1 --><svg width="264pt" height="246pt" viewBox="0.00 0.00 264.00 246.00" xmlns="http://www.w3.org/2000/svg" xmlns:xlink="http://www.w3.org/1999/xlink"><g id="graph0" class="graph" transform="scale(1 1) rotate(0) translate(4 242)"><title>FlowChart</title><!-- terminator_block_1 --><g id="node1" class="node"><title>terminator_block_1</title><ellipse fill="none" stroke="black" cx="147" cy="-220" rx="29.1504" ry="18"/><text xml:space="preserve"  text-anchor="start" x="130" y="-217.5" font-family="Open Sans" font-size="10.00">Inputfil</text></g><!-- ifs_block_2 --><g id="node2" class="node"><title>ifs_block_2</title><polygon fill="none" stroke="black" points="147,-174 82.5975,-156 147,-138 211.402,-156 147,-174"/><text xml:space="preserve"  text-anchor="start" x="116" y="-153.5" font-family="Open Sans" font-size="10.00">korrekt input</text></g><!-- terminator_block_1&#45;&gt;ifs_block_2 --><g id="edge1" class="edge"><title>terminator_block_1&#45;&gt;ifs_block_2</title><path fill="none" stroke="black" d="M147,-201.73C147,-196.355 147,-190.29 147,-184.401"/><polygon fill="black" stroke="black" points="150.5,-184.178 147,-174.178 143.5,-184.178 150.5,-184.178"/></g><!-- process_block_3 --><g id="node3" class="node"><title>process_block_3</title><polygon fill="none" stroke="black" points="91.25,-100 4.75,-100 4.75,-64 91.25,-64 91.25,-100"/><text xml:space="preserve"  text-anchor="start" x="11.5" y="-79.5" font-family="Open Sans" font-size="10.00">Kører raytracer</text></g><!-- ifs_block_2&#45;&gt;process_block_3 --><g id="edge2" class="edge"><title>ifs_block_2&#45;&gt;process_block_3</title><path fill="none" stroke="black" d="M129.756,-142.459C116.075,-132.509 96.5713,-118.325 80.0451,-106.305"/><polygon fill="black" stroke="black" points="81.8668,-103.303 71.7208,-100.252 77.7496,-108.964 81.8668,-103.303"/><text xml:space="preserve"  text-anchor="start" x="104" y="-117.5" font-family="Open Sans" font-weight="bold" font-size="10.00"> Sandt </text></g><!-- terminator_block_5 --><g id="node5" class="node"><title>terminator_block_5</title><ellipse fill="none" stroke="black" cx="181" cy="-82" rx="75.4067" ry="18"/><text xml:space="preserve"  text-anchor="start" x="124.5" y="-79.5" font-family="Open Sans" font-size="10.00">Programmet sender fejl</text></g><!-- ifs_block_2&#45;&gt;terminator_block_5 --><g id="edge4" class="edge"><title>ifs_block_2&#45;&gt;terminator_block_5</title><path fill="none" stroke="black" d="M154.211,-139.731C158.376,-130.909 163.732,-119.568 168.558,-109.348"/><polygon fill="black" stroke="black" points="171.861,-110.549 172.967,-100.012 165.532,-107.56 171.861,-110.549"/><text xml:space="preserve"  text-anchor="start" x="166" y="-117.5" font-family="Open Sans" font-weight="bold" font-size="10.00"> Falsk </text></g><!-- terminator_block_4 --><g id="node4" class="node"><title>terminator_block_4</title><ellipse fill="none" stroke="black" cx="48" cy="-18" rx="47.9073" ry="18"/><text xml:space="preserve"  text-anchor="start" x="15" y="-15.5" font-family="Open Sans" font-size="10.00">Laver billedet</text></g><!-- process_block_3&#45;&gt;terminator_block_4 --><g id="edge3" class="edge"><title>process_block_3&#45;&gt;terminator_block_4</title><path fill="none" stroke="black" d="M48,-63.7295C48,-58.3549 48,-52.2904 48,-46.4014"/><polygon fill="black" stroke="black" points="51.5001,-46.1778 48,-36.1778 44.5001,-46.1779 51.5001,-46.1778"/></g></g></svg>