<svg version="1.1" xmlns="http://www.w3.org/2000/svg" xmlns:xlink="http://www.w3.org/1999/xlink" width="620" height="475"><style xmlns="http://www.w3.org/1999/xhtml"></style><defs><clipPath id="JhULcTsTlWiP"><path fill="none" stroke="none" d="M 0 0 L 20 0 L 20 20 L 0 20 Z"/></clipPath><clipPath id="BRRdeRoUKUzn"><path fill="none" stroke="none" d="M 0 0 L 20 0 L 20 20 L 0 20 Z"/></clipPath><clipPath id="VqabRdmABJSs"><path fill="none" stroke="none" d="M 0 0 L 20 0 L 20 20 L 0 20 Z"/></clipPath><clipPath id="ztJAmWiwefbB"><path fill="none" stroke="none" d="M 0 0 L 20 0 L 20 20 L 0 20 Z"/></clipPath><clipPath id="twdqTNeVsLEU"><path fill="none" stroke="none" d="M 0 0 L 30 0 L 30 30 L 0 30 Z"/></clipPath></defs><g transform="translate(-155,-50)"><g><rect fill="#FFFFFF" stroke="none" x="0" y="0" width="828" height="530"/></g><g transform="matrix(1,0,0,1,253,254)"><g transform="translate(0,0)"><g transform="translate(-257,-258) translate(4,4) matrix(1,0,0,1,0,0)"><g><path fill="none" stroke="#000000" d="M 257 258 L 477 258 L 477 258 L 697 258" stroke-miterlimit="10"/></g></g></g></g><g transform="matrix(1,0,0,1,461,71)"><g transform="translate(0,0)"><g transform="translate(-465,-75) translate(4,4) matrix(1,0,0,1,0,0)"><g><path fill="none" stroke="#000000" d="M 465 75 L 465 272.5 L 465 272.5 L 465 470" stroke-miterlimit="10"/></g></g></g></g><g transform="matrix(1,0,0,1,392,50)"><g transform="translate(44,0) matrix(1,0,0,1,0,0) translate(-44,0)"><g><rect fill="rgb(0,0,0)" stroke="none" x="0" y="0" width="147" height="20" fill-opacity="0"/></g></g><g transform="translate(44,0) matrix(1,0,0,1,0,0) translate(-44,0)"><g><rect fill="rgb(0,0,0)" stroke="none" x="0" y="0" width="147" height="20" fill-opacity="0"/></g></g><g transform="translate(44,0) matrix(1,0,0,1,0,0) translate(-44,0)"><g><rect fill="rgb(0,0,0)" stroke="none" x="22" y="0" width="103" height="20" fill-opacity="0"/></g></g><g transform="translate(44,0) matrix(1,0,0,1,0,0) translate(-44,0)"><g><rect fill="rgb(0,0,0)" stroke="none" x="22" y="0" width="103" height="20" fill-opacity="0"/></g><text fill="rgb(0, 0, 0)" stroke="none" font-family="Arial" font-size="18px" font-style="normal" font-weight="normal" text-decoration="" line-height="20.5px" x="22" y="17">S</text><text fill="rgb(0, 0, 0)" stroke="none" font-family="Arial" font-size="18px" font-style="normal" font-weight="normal" text-decoration="" line-height="20.5px" x="34" y="17">æ</text><text fill="rgb(0, 0, 0)" stroke="none" font-family="Arial" font-size="18px" font-style="normal" font-weight="normal" text-decoration="" line-height="20.5px" x="50" y="17">lgerstyret</text></g></g><g transform="matrix(1,0,0,1,412,67)"><g transform="translate(148,-14) matrix(1,0,0,1,0,0) translate(-148,14)"><g><rect fill="rgb(0,0,0)" stroke="none" x="0" y="0" width="147" height="14" fill-opacity="0"/></g></g><g transform="translate(148,-14) matrix(1,0,0,1,0,0) translate(-148,14)"><g/></g><g transform="translate(148,-14) matrix(1,0,0,1,0,0) translate(-148,14)"><g><rect fill="rgb(0,0,0)" stroke="none" x="74" y="-7" width="1" height="14" fill-opacity="0"/></g></g><g transform="translate(148,-14) matrix(1,0,0,1,0,0) translate(-148,14)"><g><rect fill="rgb(0,0,0)" stroke="none" x="74" y="-7" width="1" height="14" fill-opacity="0"/></g></g><g transform="translate(148,-14) matrix(1,0,0,1,0,0) translate(-148,14)"><g><rect fill="rgb(0,0,0)" stroke="none" x="0" y="0" width="1" height="14" fill-opacity="0"/></g></g></g><g transform="matrix(1,0,0,1,392,477)"><g transform="translate(24,0) matrix(1,0,0,1,0,0) translate(-24,0)"><g><rect fill="rgb(0,0,0)" stroke="none" x="0" y="0" width="147" height="20" fill-opacity="0"/></g></g><g transform="translate(24,0) matrix(1,0,0,1,0,0) translate(-24,0)"><g><rect fill="rgb(0,0,0)" stroke="none" x="0" y="0" width="147" height="20" fill-opacity="0"/></g></g><g transform="translate(24,0) matrix(1,0,0,1,0,0) translate(-24,0)"><g><rect fill="rgb(0,0,0)" stroke="none" x="12" y="0" width="125" height="20" fill-opacity="0"/></g></g><g transform="translate(24,0) matrix(1,0,0,1,0,0) translate(-24,0)"><g><rect fill="rgb(0,0,0)" stroke="none" x="12" y="0" width="125" height="20" fill-opacity="0"/></g><text fill="rgb(0, 0, 0)" stroke="none" font-family="Arial" font-size="18px" font-style="normal" font-weight="normal" text-decoration="" line-height="20.5px" x="12" y="17">Forbrugerstyret</text></g></g><g transform="matrix(1,0,0,1,132,250)"><g transform="translate(46,0) matrix(1,0,0,1,0,0) translate(-46,0)"><g><rect fill="rgb(0,0,0)" stroke="none" x="0" y="0" width="147" height="20" fill-opacity="0"/></g></g><g transform="translate(46,0) matrix(1,0,0,1,0,0) translate(-46,0)"><g><rect fill="rgb(0,0,0)" stroke="none" x="0" y="0" width="147" height="20" fill-opacity="0"/></g></g><g transform="translate(46,0) matrix(1,0,0,1,0,0) translate(-46,0)"><g><rect fill="rgb(0,0,0)" stroke="none" x="23" y="0" width="101" height="20" fill-opacity="0"/></g></g><g transform="translate(46,0) matrix(1,0,0,1,0,0) translate(-46,0)"><g><rect fill="rgb(0,0,0)" stroke="none" x="23" y="0" width="101" height="20" fill-opacity="0"/></g><text fill="rgb(0, 0, 0)" stroke="none" font-family="Arial" font-size="18px" font-style="normal" font-weight="normal" text-decoration="" line-height="20.5px" x="23" y="17">Detailhandel</text></g></g><g transform="matrix(1,0,0,1,662,247)"><g transform="translate(76,0) matrix(1,0,0,1,0,0) translate(-76,0)"><g><rect fill="rgb(0,0,0)" stroke="none" x="0" y="0" width="147" height="20" fill-opacity="0"/></g></g><g transform="translate(76,0) matrix(1,0,0,1,0,0) translate(-76,0)"><g><rect fill="rgb(0,0,0)" stroke="none" x="0" y="0" width="147" height="20" fill-opacity="0"/></g></g><g transform="translate(76,0) matrix(1,0,0,1,0,0) translate(-76,0)"><g><rect fill="rgb(0,0,0)" stroke="none" x="38" y="0" width="71" height="20" fill-opacity="0"/></g></g><g transform="translate(76,0) matrix(1,0,0,1,0,0) translate(-76,0)"><g><rect fill="rgb(0,0,0)" stroke="none" x="38" y="0" width="71" height="20" fill-opacity="0"/></g><text fill="rgb(0, 0, 0)" stroke="none" font-family="Arial" font-size="18px" font-style="normal" font-weight="normal" text-decoration="" line-height="20.5px" x="38" y="17">e</text><text fill="rgb(0, 0, 0)" stroke="none" font-family="Arial" font-size="18px" font-style="normal" font-weight="normal" text-decoration="" line-height="20.5px" x="48" y="17">-</text><text fill="rgb(0, 0, 0)" stroke="none" font-family="Arial" font-size="18px" font-style="normal" font-weight="normal" text-decoration="" line-height="20.5px" x="54" y="17">handel</text></g></g><g transform="translate(0,0) matrix(1,0,0,1,280,110)"><g><g clip-path="url(#JhULcTsTlWiP)"><g transform="translate(0,0) scale(0.19801980198019803,0.19801980198019803)"><g><g><path fill="rgb(0,0,0)" stroke="#000000" d="M 0 100 L 100 0" fill-opacity="0" stroke-linecap="round" stroke-miterlimit="10" stroke-width="5"/></g><g><path fill="rgb(0,0,0)" stroke="#000000" d="M 100 100 L 0 0" fill-opacity="0" stroke-linecap="round" stroke-miterlimit="10" stroke-width="5"/></g></g></g></g></g></g><g transform="matrix(1,0,0,1,217,140)"><g transform="translate(6,0) matrix(1,0,0,1,0,0) translate(-6,0)"><g><rect fill="rgb(0,0,0)" stroke="none" x="0" y="0" width="147" height="40" fill-opacity="0"/></g></g><g transform="translate(6,0) matrix(1,0,0,1,0,0) translate(-6,0)"><g><rect fill="rgb(0,0,0)" stroke="none" x="0" y="0" width="147" height="40" fill-opacity="0"/></g></g><g transform="translate(6,0) matrix(1,0,0,1,0,0) translate(-6,0)"><g><rect fill="rgb(0,0,0)" stroke="none" x="3" y="0" width="143" height="40" fill-opacity="0"/></g></g><g transform="translate(6,0) matrix(1,0,0,1,0,0) translate(-6,0)"><g><rect fill="rgb(0,0,0)" stroke="none" x="3" y="0" width="143" height="40" fill-opacity="0"/></g><text fill="rgb(0, 0, 0)" stroke="none" font-family="Arial" font-size="18px" font-style="normal" font-weight="normal" text-decoration="" line-height="20.5px" x="3" y="17">Fysiske</text><text fill="rgb(0, 0, 0)" stroke="none" font-family="Arial" font-size="18px" font-style="normal" font-weight="normal" text-decoration="" line-height="20.5px" x="69" y="17">lamper</text><text fill="rgb(0, 0, 0)" stroke="none" font-family="Arial" font-size="18px" font-style="normal" font-weight="normal" text-decoration="" line-height="20.5px" x="129" y="17">u</text><text fill="rgb(0, 0, 0)" stroke="none" font-family="Arial" font-size="18px" font-style="normal" font-weight="normal" text-decoration="" line-height="20.5px" x="139" y="17">.</text><text fill="rgb(0, 0, 0)" stroke="none" font-family="Arial" font-size="18px" font-style="normal" font-weight="normal" text-decoration="" line-height="20.5px" x="32" y="37">interaktion</text></g></g><g transform="translate(0,0) matrix(1,0,0,1,620,110)"><g><g clip-path="url(#BRRdeRoUKUzn)"><g transform="translate(0,0) scale(0.19801980198019803,0.19801980198019803)"><g><g><path fill="rgb(0,0,0)" stroke="#000000" d="M 0 100 L 100 0" fill-opacity="0" stroke-linecap="round" stroke-miterlimit="10" stroke-width="5"/></g><g><path fill="rgb(0,0,0)" stroke="#000000" d="M 100 100 L 0 0" fill-opacity="0" stroke-linecap="round" stroke-miterlimit="10" stroke-width="5"/></g></g></g></g></g></g><g transform="matrix(1,0,0,1,557,140)"><g transform="translate(6,0) matrix(1,0,0,1,0,0) translate(-6,0)"><g><rect fill="rgb(0,0,0)" stroke="none" x="0" y="0" width="147" height="40" fill-opacity="0"/></g></g><g transform="translate(6,0) matrix(1,0,0,1,0,0) translate(-6,0)"><g><rect fill="rgb(0,0,0)" stroke="none" x="0" y="0" width="147" height="40" fill-opacity="0"/></g></g><g transform="translate(6,0) matrix(1,0,0,1,0,0) translate(-6,0)"><g><rect fill="rgb(0,0,0)" stroke="none" x="3" y="0" width="141" height="40" fill-opacity="0"/></g></g><g transform="translate(6,0) matrix(1,0,0,1,0,0) translate(-6,0)"><g><rect fill="rgb(0,0,0)" stroke="none" x="3" y="0" width="141" height="40" fill-opacity="0"/></g><text fill="rgb(0, 0, 0)" stroke="none" font-family="Arial" font-size="18px" font-style="normal" font-weight="normal" text-decoration="" line-height="20.5px" x="3" y="17">Billeder</text><text fill="rgb(0, 0, 0)" stroke="none" font-family="Arial" font-size="18px" font-style="normal" font-weight="normal" text-decoration="" line-height="20.5px" x="69" y="17">af</text><text fill="rgb(0, 0, 0)" stroke="none" font-family="Arial" font-size="18px" font-style="normal" font-weight="normal" text-decoration="" line-height="20.5px" x="89" y="17">fysiske</text><text fill="rgb(0, 0, 0)" stroke="none" font-family="Arial" font-size="18px" font-style="normal" font-weight="normal" text-decoration="" line-height="20.5px" x="46" y="37">lamper</text></g></g><g transform="translate(0,0) matrix(1,0,0,1,650,420)"><g><g clip-path="url(#VqabRdmABJSs)"><g transform="translate(0,0) scale(0.19801980198019803,0.19801980198019803)"><g><g><path fill="rgb(0,0,0)" stroke="#000000" d="M 0 100 L 100 0" fill-opacity="0" stroke-linecap="round" stroke-miterlimit="10" stroke-width="5"/></g><g><path fill="rgb(0,0,0)" stroke="#000000" d="M 100 100 L 0 0" fill-opacity="0" stroke-linecap="round" stroke-miterlimit="10" stroke-width="5"/></g></g></g></g></g></g><g transform="matrix(1,0,0,1,587,450)"><g transform="translate(100,20) matrix(1,0,0,1,0,0) translate(-100,-20)"><g><rect fill="rgb(0,0,0)" stroke="none" x="0" y="0" width="147" height="60" fill-opacity="0"/></g></g><g transform="translate(100,20) matrix(1,0,0,1,0,0) translate(-100,-20)"><g><rect fill="rgb(0,0,0)" stroke="none" x="0" y="0" width="147" height="60" fill-opacity="0"/></g></g><g transform="translate(100,20) matrix(1,0,0,1,0,0) translate(-100,-20)"><g><rect fill="rgb(0,0,0)" stroke="none" x="14" y="0" width="119" height="40" fill-opacity="0"/></g><text fill="rgb(0, 0, 0)" stroke="none" font-family="Arial" font-size="18px" font-style="normal" font-weight="normal" text-decoration="" line-height="20.5px" x="14" y="17">3D</text><text fill="rgb(0, 0, 0)" stroke="none" font-family="Arial" font-size="18px" font-style="normal" font-weight="normal" text-decoration="" line-height="20.5px" x="37" y="17">-</text><text fill="rgb(0, 0, 0)" stroke="none" font-family="Arial" font-size="18px" font-style="normal" font-weight="normal" text-decoration="" line-height="20.5px" x="43" y="17">modeller</text><text fill="rgb(0, 0, 0)" stroke="none" font-family="Arial" font-size="18px" font-style="normal" font-weight="normal" text-decoration="" line-height="20.5px" x="118" y="17">af</text><text fill="rgb(0, 0, 0)" stroke="none" font-family="Arial" font-size="18px" font-style="normal" font-weight="normal" text-decoration="" line-height="20.5px" x="26" y="37">lamper</text></g><g transform="translate(100,20) matrix(1,0,0,1,0,0) translate(-100,-20)"><g><rect fill="rgb(0,0,0)" stroke="none" x="86" y="20" width="91" height="40" fill-opacity="0"/></g><text fill="rgb(0, 0, 0)" stroke="none" font-family="Arial" font-size="18px" font-style="normal" font-weight="normal" text-decoration="" line-height="20.5px" x="86" y="37">med</text><text fill="rgb(0, 0, 0)" stroke="none" font-family="Arial" font-size="18px" font-style="normal" font-weight="normal" text-decoration="" line-height="20.5px" x="32" y="57">interaktion</text></g></g><g transform="translate(0,0) matrix(1,0,0,1,280,360)"><g><g clip-path="url(#ztJAmWiwefbB)"><g transform="translate(0,0) scale(0.19801980198019803,0.19801980198019803)"><g><g><path fill="rgb(0,0,0)" stroke="#000000" d="M 0 100 L 100 0" fill-opacity="0" stroke-linecap="round" stroke-miterlimit="10" stroke-width="5"/></g><g><path fill="rgb(0,0,0)" stroke="#000000" d="M 100 100 L 0 0" fill-opacity="0" stroke-linecap="round" stroke-miterlimit="10" stroke-width="5"/></g></g></g></g></g></g><g transform="matrix(1,0,0,1,217,390)"><g transform="translate(0,0) matrix(1,0,0,1,0,0) translate(0,0)"><g><rect fill="rgb(0,0,0)" stroke="none" x="0" y="0" width="147" height="40" fill-opacity="0"/></g></g><g transform="translate(0,0) matrix(1,0,0,1,0,0) translate(0,0)"><g><rect fill="rgb(0,0,0)" stroke="none" x="0" y="0" width="147" height="40" fill-opacity="0"/></g></g><g transform="translate(0,0) matrix(1,0,0,1,0,0) translate(0,0)"><g><rect fill="rgb(0,0,0)" stroke="none" x="0" y="0" width="147" height="40" fill-opacity="0"/></g></g><g transform="translate(0,0) matrix(1,0,0,1,0,0) translate(0,0)"><g><rect fill="rgb(0,0,0)" stroke="none" x="0" y="0" width="147" height="40" fill-opacity="0"/></g><text fill="rgb(0, 0, 0)" stroke="none" font-family="Arial" font-size="18px" font-style="normal" font-weight="normal" text-decoration="" line-height="20.5px" x="0" y="17">Fysiske</text><text fill="rgb(0, 0, 0)" stroke="none" font-family="Arial" font-size="18px" font-style="normal" font-weight="normal" text-decoration="" line-height="20.5px" x="66" y="17">lamper</text><text fill="rgb(0, 0, 0)" stroke="none" font-family="Arial" font-size="18px" font-style="normal" font-weight="normal" text-decoration="" line-height="20.5px" x="127" y="17">m</text><text fill="rgb(0, 0, 0)" stroke="none" font-family="Arial" font-size="18px" font-style="normal" font-weight="normal" text-decoration="" line-height="20.5px" x="142" y="17">.</text><text fill="rgb(0, 0, 0)" stroke="none" font-family="Arial" font-size="18px" font-style="normal" font-weight="normal" text-decoration="" line-height="20.5px" x="32" y="37">interaktion</text></g></g><g transform="translate(0,0) matrix(1,0,0,1,630,400)"><g><g transform="translate(0,0) scale(0.5,0.5)"><g><path fill="#FFFFFF" stroke="none" d="M 100 50 A 50 50 0 1 0 99.99997500000208 50.04999999166668 Z"/><g transform="scale(2,2)"><path fill="none" stroke="#333333" d="M 25 0 M 25 0 C 38.8071175 0 50 11.192882500000001 50 25 C 50 38.8071175 38.8071175 50 25 50 C 11.192882500000001 50 0 38.8071175 0 25 C 0 11.192882500000001 11.192882500000001 0 25 0 Z" stroke-miterlimit="10" stroke-width="2"/></g></g></g></g></g><g transform="translate(0,0) matrix(1,0,0,1,640,410)"><g><g clip-path="url(#twdqTNeVsLEU)"><g transform="translate(0,0) scale(0.297029702970297,0.297029702970297)"><g><g><path fill="rgb(0,0,0)" stroke="#000000" d="M 0 100 L 100 0" fill-opacity="0" stroke-linecap="round" stroke-miterlimit="10" stroke-width="5"/></g><g><path fill="rgb(0,0,0)" stroke="#000000" d="M 100 100 L 0 0" fill-opacity="0" stroke-linecap="round" stroke-miterlimit="10" stroke-width="5"/></g></g></g></g></g></g></g></svg>
