ply
format ascii 1.0
comment Created by Blender 2.71 (sub 0) - www.blender.org, source file: 'blender_model.blend'
element vertex 24
property float x
property float y
property float z
property float nx
property float ny
property float nz
element face 6
property list uchar uint vertex_indices
end_header
248.446182 5318.851074 133.256958 0.312596 0.631273 -0.709773
821.617920 4597.640625 -255.754105 0.312596 0.631273 -0.709773
64.149979 4312.422363 -843.029907 0.312596 0.631273 -0.709773
-509.021729 5033.632812 -454.018616 0.312596 0.631273 -0.709773
-64.149734 4687.577637 843.029907 -0.312596 -0.631273 0.709773
-821.617920 4402.359375 255.754135 -0.312596 -0.631273 0.709773
-248.446365 3681.148926 -133.256989 -0.312596 -0.631273 0.709773
509.021729 3966.367188 454.018494 -0.312596 -0.631273 0.709773
248.446182 5318.851074 133.256958 0.757468 0.285218 0.587276
-64.149734 4687.577637 843.029907 0.757468 0.285218 0.587276
509.021729 3966.367188 454.018494 0.757468 0.285218 0.587276
821.617920 4597.640625 -255.754105 0.757468 0.285218 0.587276
821.617920 4597.640625 -255.754105 0.573172 -0.721210 -0.389011
509.021729 3966.367188 454.018494 0.573172 -0.721210 -0.389011
-248.446365 3681.148926 -133.256989 0.573172 -0.721210 -0.389011
64.149979 4312.422363 -843.029907 0.573172 -0.721210 -0.389011
64.149979 4312.422363 -843.029907 -0.757468 -0.285218 -0.587276
-248.446365 3681.148926 -133.256989 -0.757468 -0.285218 -0.587276
-821.617920 4402.359375 255.754135 -0.757468 -0.285218 -0.587276
-509.021729 5033.632812 -454.018616 -0.757468 -0.285218 -0.587276
-64.149734 4687.577637 843.029907 -0.573172 0.721210 0.389011
248.446182 5318.851074 133.256958 -0.573172 0.721210 0.389011
-509.021729 5033.632812 -454.018616 -0.573172 0.721210 0.389011
-821.617920 4402.359375 255.754135 -0.573172 0.721210 0.389011
4 0 1 2 3
4 4 5 6 7
4 8 9 10 11
4 12 13 14 15
4 16 17 18 19
4 20 21 22 23
