ply
format ascii 1.0
comment Created by Blender 2.71 (sub 0) - www.blender.org, source file: ''
element vertex 32
property float x
property float y
property float z
property float nx
property float ny
property float nz
element face 40
property list uchar uint vertex_indices
element object 5
property uint verticies
property uint triangles
property uchar red
property uchar green
property uchar blue
property float diffuse_coefficient
property float specular_coefficient
property float specular_hardness
element light 2
property float x
property float y
property float z
property float intensity
property uchar red
property uchar green
property uchar blue
end_header
-0.084926 12.496611 1.674480 -0.380840 0.224952 0.896817
1.704745 13.353709 0.831614 0.577654 0.684011 0.445387
0.691089 13.617142 -1.052813 0.034761 0.825098 -0.563860
-1.098581 12.760044 -0.209946 -0.923765 0.366039 -0.112430
0.561252 10.536013 1.052814 -0.034761 -0.825098 0.563860
2.350921 11.393110 0.209946 0.923765 -0.366039 0.112430
1.337266 11.656543 -1.674481 0.380840 -0.224952 -0.896817
-0.452404 10.799445 -0.831614 -0.577654 -0.684011 -0.445387
-0.863031 14.330445 0.187776 0.374279 0.924100 0.076968
0.273017 12.235909 -1.313431 0.840052 0.065310 -0.538499
-2.269630 11.591652 -2.338706 -0.202429 -0.198798 -0.958892
-3.405678 13.686188 -0.837498 -0.668233 0.659932 -0.343364
-1.282136 12.561502 2.338705 0.202429 0.198798 0.958892
-0.146089 10.466966 0.837498 0.668233 -0.659932 0.343364
-2.688736 9.822709 -0.187775 -0.374279 -0.924100 -0.076968
-3.824784 11.917245 1.313431 -0.840052 -0.065310 0.538499
-0.356837 11.683207 0.960241 0.347118 -0.319163 -0.881802
-0.696597 10.847338 2.060779 0.071444 -0.997375 0.011109
-1.897091 11.587265 2.252141 -0.902585 -0.397015 0.166387
-1.557331 12.423134 1.151603 -0.626911 0.281167 -0.726554
0.327761 12.565888 1.841997 0.902585 0.397015 -0.166387
-0.012000 11.730021 2.942535 0.626911 -0.281167 0.726554
-1.212493 12.469948 3.133897 -0.347118 0.319163 0.881802
-0.872733 13.305817 2.033359 -0.071444 0.997375 -0.011109
-93.196426 29.731092 -26.039917 0.000000 -1.000000 0.000000
339.348511 29.731092 -26.039917 0.000000 -1.000000 0.000000
-93.196426 29.731127 406.505005 0.000000 -1.000000 0.000000
339.348511 29.731127 406.505005 0.000000 -1.000000 0.000000
485.709991 486.329773 -10.344508 0.000000 0.000000 1.000000
-485.709991 486.329773 -10.344508 0.000000 0.000000 1.000000
485.709991 -485.090210 -10.344508 0.000000 0.000000 1.000000
-485.709991 -485.090210 -10.344508 0.000000 0.000000 1.000000
3 1 2 3
3 7 6 5
3 0 4 5
3 1 5 6
3 6 7 3
3 0 3 7
3 0 1 3
3 4 7 5
3 1 0 5
3 2 1 6
3 2 6 3
3 4 0 7
3 9 10 11
3 15 14 13
3 8 12 13
3 13 14 10
3 14 15 11
3 8 11 15
3 8 9 11
3 12 15 13
3 9 8 13
3 9 13 10
3 10 14 11
3 12 8 15
3 17 18 19
3 23 22 21
3 16 20 21
3 21 22 18
3 18 22 23
3 16 19 23
3 16 17 19
3 20 23 21
3 17 16 21
3 17 21 18
3 19 18 23
3 20 16 23
3 25 27 26
3 24 25 26
3 29 31 30
3 28 29 30
8 12 204 204 204 0.800000 0.500000 50
8 12 204 204 204 0.800000 0.500000 50
8 12 204 204 204 0.800000 0.500000 50
4 2 204 204 204 0.800000 0.500000 50
4 2 204 204 204 0.800000 0.500000 50
-5.000000 10.000000 2.207476 1.000000 1 0 255
5.554206 10.000000 0.000000 1.000000 255 2 1
