ply
format ascii 1.0
comment Created by Blender 2.76 (sub 0) - www.blender.org, source file: 'untitled.blend'
element vertex 16
property float x
property float y
property float z
property float nx
property float ny
property float nz
element face 16
property list uchar uint vertex_indices
element object 3
property uint verticies
property uint triangles
property uchar red
property uchar green
property uchar blue
property float diffuse_coefficient
property float specular_coefficient
property float specular_hardness
element light 1
property float x
property float y
property float z
property float intensity
property uchar red
property uchar green
property uchar blue
property float radius
property int sampling_rate
end_header
86.758194 365.369995 -46.088211 -0.577349 -0.577349 -0.577349
86.758194 365.369995 1.177851 -0.577349 -0.577349 0.577349
86.758194 399.846375 -46.088211 -0.577349 0.577349 -0.577349
86.758194 399.846375 1.177851 -0.577349 0.577349 0.577349
126.737061 365.369995 -46.088211 0.577349 -0.577349 -0.577349
126.737061 365.369995 1.177851 0.577349 -0.577349 0.577349
126.737061 399.846375 -46.088211 0.577349 0.577349 -0.577349
126.737061 399.846375 1.177851 0.577349 0.577349 0.577349
-266.108704 507.672943 -278.174591 0.000000 -1.000000 0.000000
233.891296 507.672943 -278.174591 0.000000 -0.999969 0.000000
-266.108704 507.672943 221.825409 0.000000 -0.999969 0.000000
233.891296 507.672943 221.825409 0.000000 -1.000000 0.000000
-266.108704 258.684021 -138.788895 0.000000 -0.089816 0.995941
233.891296 258.684021 -138.788895 0.000000 -0.089816 0.995941
-266.108704 756.661865 -93.866135 0.000000 -0.089816 0.995941
233.891296 756.661865 -93.866135 0.000000 -0.089816 0.995941
3 3 2 0
3 7 6 2
3 5 4 6
3 1 0 4
3 2 6 4
3 7 3 1
3 1 3 0
3 3 7 2
3 7 5 6
3 5 1 4
3 0 2 4
3 5 7 1
3 9 11 10
3 8 9 10
3 13 15 14
3 12 13 14
8 12 204 204 204 0.800000 0.500000 50
4 2 204 190 167 0.800000 0.500000 50
4 2 186 204 120 0.800000 0.500000 50
177.113007 286.377991 -24.237356 0.820000 255 255 255 5 32
